<mxfile host="app.diagrams.net" modified="2022-05-30T15:50:14.345Z" agent="5.0 (Macintosh; Intel Mac OS X 10_15_7) AppleWebKit/605.1.15 (KHTML, like Gecko) Version/15.4 Safari/605.1.15" etag="bTk0Gl7N8QyhiIXQozzz" version="18.1.1" type="github" pages="3">
  <diagram id="R6a50qLmQAAjvGmiSF7n" name="DCAT-AP">
    <mxGraphModel dx="1807" dy="1185" grid="1" gridSize="10" guides="1" tooltips="1" connect="1" arrows="1" fold="1" page="1" pageScale="1" pageWidth="827" pageHeight="1169" math="0" shadow="0">
      <root>
        <mxCell id="0" />
        <mxCell id="1" parent="0" />
        <mxCell id="bknErVVYFALVzbJXiR_A-92" value="" style="group" parent="1" vertex="1" connectable="0">
          <mxGeometry x="20" y="20" width="1260" height="880" as="geometry" />
        </mxCell>
        <mxCell id="bknErVVYFALVzbJXiR_A-89" value="" style="rounded=0;whiteSpace=wrap;html=1;" parent="bknErVVYFALVzbJXiR_A-92" vertex="1">
          <mxGeometry width="1260" height="880" as="geometry" />
        </mxCell>
        <mxCell id="bknErVVYFALVzbJXiR_A-88" value="" style="group" parent="bknErVVYFALVzbJXiR_A-92" vertex="1" connectable="0">
          <mxGeometry x="50" y="50" width="1160" height="782" as="geometry" />
        </mxCell>
        <mxCell id="bknErVVYFALVzbJXiR_A-2" value="dcat:Dataset" style="swimlane;fontStyle=0;childLayout=stackLayout;horizontal=1;startSize=26;fillColor=none;horizontalStack=0;resizeParent=1;resizeParentMax=0;resizeLast=0;collapsible=1;marginBottom=0;" parent="bknErVVYFALVzbJXiR_A-88" vertex="1">
          <mxGeometry x="280" y="222" width="140" height="338" as="geometry">
            <mxRectangle x="480" y="750" width="100" height="26" as="alternateBounds" />
          </mxGeometry>
        </mxCell>
        <mxCell id="bknErVVYFALVzbJXiR_A-3" value="dct:title" style="text;strokeColor=none;fillColor=none;align=left;verticalAlign=top;spacingLeft=4;spacingRight=4;overflow=hidden;rotatable=0;points=[[0,0.5],[1,0.5]];portConstraint=eastwest;" parent="bknErVVYFALVzbJXiR_A-2" vertex="1">
          <mxGeometry y="26" width="140" height="26" as="geometry" />
        </mxCell>
        <mxCell id="bknErVVYFALVzbJXiR_A-4" value="dct:description" style="text;strokeColor=none;fillColor=none;align=left;verticalAlign=top;spacingLeft=4;spacingRight=4;overflow=hidden;rotatable=0;points=[[0,0.5],[1,0.5]];portConstraint=eastwest;" parent="bknErVVYFALVzbJXiR_A-2" vertex="1">
          <mxGeometry y="52" width="140" height="26" as="geometry" />
        </mxCell>
        <mxCell id="bknErVVYFALVzbJXiR_A-5" value="dct:issued&#xa;" style="text;strokeColor=none;fillColor=none;align=left;verticalAlign=top;spacingLeft=4;spacingRight=4;overflow=hidden;rotatable=0;points=[[0,0.5],[1,0.5]];portConstraint=eastwest;" parent="bknErVVYFALVzbJXiR_A-2" vertex="1">
          <mxGeometry y="78" width="140" height="26" as="geometry" />
        </mxCell>
        <mxCell id="bknErVVYFALVzbJXiR_A-19" value="dct:modified" style="text;strokeColor=none;fillColor=none;align=left;verticalAlign=top;spacingLeft=4;spacingRight=4;overflow=hidden;rotatable=0;points=[[0,0.5],[1,0.5]];portConstraint=eastwest;" parent="bknErVVYFALVzbJXiR_A-2" vertex="1">
          <mxGeometry y="104" width="140" height="26" as="geometry" />
        </mxCell>
        <mxCell id="bknErVVYFALVzbJXiR_A-18" value="dct:identifier" style="text;strokeColor=none;fillColor=none;align=left;verticalAlign=top;spacingLeft=4;spacingRight=4;overflow=hidden;rotatable=0;points=[[0,0.5],[1,0.5]];portConstraint=eastwest;" parent="bknErVVYFALVzbJXiR_A-2" vertex="1">
          <mxGeometry y="130" width="140" height="26" as="geometry" />
        </mxCell>
        <mxCell id="bknErVVYFALVzbJXiR_A-17" value="dcat:keyword" style="text;strokeColor=none;fillColor=none;align=left;verticalAlign=top;spacingLeft=4;spacingRight=4;overflow=hidden;rotatable=0;points=[[0,0.5],[1,0.5]];portConstraint=eastwest;" parent="bknErVVYFALVzbJXiR_A-2" vertex="1">
          <mxGeometry y="156" width="140" height="26" as="geometry" />
        </mxCell>
        <mxCell id="bknErVVYFALVzbJXiR_A-16" value="dct:language" style="text;strokeColor=none;fillColor=none;align=left;verticalAlign=top;spacingLeft=4;spacingRight=4;overflow=hidden;rotatable=0;points=[[0,0.5],[1,0.5]];portConstraint=eastwest;" parent="bknErVVYFALVzbJXiR_A-2" vertex="1">
          <mxGeometry y="182" width="140" height="26" as="geometry" />
        </mxCell>
        <mxCell id="bknErVVYFALVzbJXiR_A-15" value="dcat:contactPoint" style="text;strokeColor=none;fillColor=none;align=left;verticalAlign=top;spacingLeft=4;spacingRight=4;overflow=hidden;rotatable=0;points=[[0,0.5],[1,0.5]];portConstraint=eastwest;" parent="bknErVVYFALVzbJXiR_A-2" vertex="1">
          <mxGeometry y="208" width="140" height="26" as="geometry" />
        </mxCell>
        <mxCell id="bknErVVYFALVzbJXiR_A-14" value="dct:temporal" style="text;strokeColor=none;fillColor=none;align=left;verticalAlign=top;spacingLeft=4;spacingRight=4;overflow=hidden;rotatable=0;points=[[0,0.5],[1,0.5]];portConstraint=eastwest;" parent="bknErVVYFALVzbJXiR_A-2" vertex="1">
          <mxGeometry y="234" width="140" height="26" as="geometry" />
        </mxCell>
        <mxCell id="bknErVVYFALVzbJXiR_A-13" value="dct:spatial" style="text;strokeColor=none;fillColor=none;align=left;verticalAlign=top;spacingLeft=4;spacingRight=4;overflow=hidden;rotatable=0;points=[[0,0.5],[1,0.5]];portConstraint=eastwest;" parent="bknErVVYFALVzbJXiR_A-2" vertex="1">
          <mxGeometry y="260" width="140" height="26" as="geometry" />
        </mxCell>
        <mxCell id="bknErVVYFALVzbJXiR_A-20" value="dct:accrualPeriodicity" style="text;strokeColor=none;fillColor=none;align=left;verticalAlign=top;spacingLeft=4;spacingRight=4;overflow=hidden;rotatable=0;points=[[0,0.5],[1,0.5]];portConstraint=eastwest;" parent="bknErVVYFALVzbJXiR_A-2" vertex="1">
          <mxGeometry y="286" width="140" height="26" as="geometry" />
        </mxCell>
        <mxCell id="bknErVVYFALVzbJXiR_A-21" value="dcat:landingPage" style="text;strokeColor=none;fillColor=none;align=left;verticalAlign=top;spacingLeft=4;spacingRight=4;overflow=hidden;rotatable=0;points=[[0,0.5],[1,0.5]];portConstraint=eastwest;" parent="bknErVVYFALVzbJXiR_A-2" vertex="1">
          <mxGeometry y="312" width="140" height="26" as="geometry" />
        </mxCell>
        <object label="dcat:Distribution" id="bknErVVYFALVzbJXiR_A-7">
          <mxCell style="swimlane;fontStyle=0;childLayout=stackLayout;horizontal=1;startSize=26;fillColor=none;horizontalStack=0;resizeParent=1;resizeParentMax=0;resizeLast=0;collapsible=1;marginBottom=0;" parent="bknErVVYFALVzbJXiR_A-88" vertex="1">
            <mxGeometry x="650" width="140" height="312" as="geometry" />
          </mxCell>
        </object>
        <mxCell id="bknErVVYFALVzbJXiR_A-28" value="dct:title" style="text;strokeColor=none;fillColor=none;align=left;verticalAlign=top;spacingLeft=4;spacingRight=4;overflow=hidden;rotatable=0;points=[[0,0.5],[1,0.5]];portConstraint=eastwest;" parent="bknErVVYFALVzbJXiR_A-7" vertex="1">
          <mxGeometry y="26" width="140" height="26" as="geometry" />
        </mxCell>
        <mxCell id="bknErVVYFALVzbJXiR_A-29" value="dct:description" style="text;strokeColor=none;fillColor=none;align=left;verticalAlign=top;spacingLeft=4;spacingRight=4;overflow=hidden;rotatable=0;points=[[0,0.5],[1,0.5]];portConstraint=eastwest;" parent="bknErVVYFALVzbJXiR_A-7" vertex="1">
          <mxGeometry y="52" width="140" height="26" as="geometry" />
        </mxCell>
        <mxCell id="bknErVVYFALVzbJXiR_A-30" value="dct:issued&#xa;" style="text;strokeColor=none;fillColor=none;align=left;verticalAlign=top;spacingLeft=4;spacingRight=4;overflow=hidden;rotatable=0;points=[[0,0.5],[1,0.5]];portConstraint=eastwest;" parent="bknErVVYFALVzbJXiR_A-7" vertex="1">
          <mxGeometry y="78" width="140" height="26" as="geometry" />
        </mxCell>
        <mxCell id="bknErVVYFALVzbJXiR_A-31" value="dct:modified" style="text;strokeColor=none;fillColor=none;align=left;verticalAlign=top;spacingLeft=4;spacingRight=4;overflow=hidden;rotatable=0;points=[[0,0.5],[1,0.5]];portConstraint=eastwest;" parent="bknErVVYFALVzbJXiR_A-7" vertex="1">
          <mxGeometry y="104" width="140" height="26" as="geometry" />
        </mxCell>
        <mxCell id="bknErVVYFALVzbJXiR_A-32" value="dct:license" style="text;strokeColor=none;fillColor=none;align=left;verticalAlign=top;spacingLeft=4;spacingRight=4;overflow=hidden;rotatable=0;points=[[0,0.5],[1,0.5]];portConstraint=eastwest;" parent="bknErVVYFALVzbJXiR_A-7" vertex="1">
          <mxGeometry y="130" width="140" height="26" as="geometry" />
        </mxCell>
        <mxCell id="bknErVVYFALVzbJXiR_A-33" value="dct:rights" style="text;strokeColor=none;fillColor=none;align=left;verticalAlign=top;spacingLeft=4;spacingRight=4;overflow=hidden;rotatable=0;points=[[0,0.5],[1,0.5]];portConstraint=eastwest;" parent="bknErVVYFALVzbJXiR_A-7" vertex="1">
          <mxGeometry y="156" width="140" height="26" as="geometry" />
        </mxCell>
        <mxCell id="bknErVVYFALVzbJXiR_A-34" value="dcat:accessURL" style="text;strokeColor=none;fillColor=none;align=left;verticalAlign=top;spacingLeft=4;spacingRight=4;overflow=hidden;rotatable=0;points=[[0,0.5],[1,0.5]];portConstraint=eastwest;" parent="bknErVVYFALVzbJXiR_A-7" vertex="1">
          <mxGeometry y="182" width="140" height="26" as="geometry" />
        </mxCell>
        <mxCell id="bknErVVYFALVzbJXiR_A-35" value="dcat:downloadURL" style="text;strokeColor=none;fillColor=none;align=left;verticalAlign=top;spacingLeft=4;spacingRight=4;overflow=hidden;rotatable=0;points=[[0,0.5],[1,0.5]];portConstraint=eastwest;" parent="bknErVVYFALVzbJXiR_A-7" vertex="1">
          <mxGeometry y="208" width="140" height="26" as="geometry" />
        </mxCell>
        <mxCell id="bknErVVYFALVzbJXiR_A-36" value="dcat:mediaType" style="text;strokeColor=none;fillColor=none;align=left;verticalAlign=top;spacingLeft=4;spacingRight=4;overflow=hidden;rotatable=0;points=[[0,0.5],[1,0.5]];portConstraint=eastwest;" parent="bknErVVYFALVzbJXiR_A-7" vertex="1">
          <mxGeometry y="234" width="140" height="26" as="geometry" />
        </mxCell>
        <mxCell id="bknErVVYFALVzbJXiR_A-37" value="dct:format" style="text;strokeColor=none;fillColor=none;align=left;verticalAlign=top;spacingLeft=4;spacingRight=4;overflow=hidden;rotatable=0;points=[[0,0.5],[1,0.5]];portConstraint=eastwest;" parent="bknErVVYFALVzbJXiR_A-7" vertex="1">
          <mxGeometry y="260" width="140" height="26" as="geometry" />
        </mxCell>
        <mxCell id="bknErVVYFALVzbJXiR_A-38" value="dcat:byteSize" style="text;strokeColor=none;fillColor=none;align=left;verticalAlign=top;spacingLeft=4;spacingRight=4;overflow=hidden;rotatable=0;points=[[0,0.5],[1,0.5]];portConstraint=eastwest;" parent="bknErVVYFALVzbJXiR_A-7" vertex="1">
          <mxGeometry y="286" width="140" height="26" as="geometry" />
        </mxCell>
        <mxCell id="bknErVVYFALVzbJXiR_A-26" value="dctype:Dataset" style="html=1;" parent="bknErVVYFALVzbJXiR_A-88" vertex="1">
          <mxGeometry x="280" y="142" width="140" height="30" as="geometry" />
        </mxCell>
        <mxCell id="bknErVVYFALVzbJXiR_A-27" value="" style="endArrow=block;endSize=16;endFill=0;html=1;rounded=0;exitX=0.5;exitY=0;exitDx=0;exitDy=0;entryX=0.5;entryY=1;entryDx=0;entryDy=0;" parent="bknErVVYFALVzbJXiR_A-88" source="bknErVVYFALVzbJXiR_A-2" target="bknErVVYFALVzbJXiR_A-26" edge="1">
          <mxGeometry width="160" relative="1" as="geometry">
            <mxPoint x="290" y="222" as="sourcePoint" />
            <mxPoint x="450" y="222" as="targetPoint" />
          </mxGeometry>
        </mxCell>
        <mxCell id="bknErVVYFALVzbJXiR_A-39" value="" style="endArrow=block;endFill=1;html=1;edgeStyle=orthogonalEdgeStyle;align=left;verticalAlign=top;rounded=0;entryX=0;entryY=0.077;entryDx=0;entryDy=0;entryPerimeter=0;" parent="bknErVVYFALVzbJXiR_A-88" target="bknErVVYFALVzbJXiR_A-37" edge="1">
          <mxGeometry x="-1" relative="1" as="geometry">
            <mxPoint x="420" y="262" as="sourcePoint" />
            <mxPoint x="580" y="262" as="targetPoint" />
          </mxGeometry>
        </mxCell>
        <mxCell id="bknErVVYFALVzbJXiR_A-41" value="dcat:distribution" style="text;html=1;align=center;verticalAlign=middle;resizable=0;points=[];autosize=1;strokeColor=none;fillColor=none;" parent="bknErVVYFALVzbJXiR_A-88" vertex="1">
          <mxGeometry x="454" y="242" width="100" height="20" as="geometry" />
        </mxCell>
        <mxCell id="bknErVVYFALVzbJXiR_A-42" value="dcat:CatalogRecord" style="swimlane;fontStyle=0;childLayout=stackLayout;horizontal=1;startSize=26;fillColor=none;horizontalStack=0;resizeParent=1;resizeParentMax=0;resizeLast=0;collapsible=1;marginBottom=0;" parent="bknErVVYFALVzbJXiR_A-88" vertex="1">
          <mxGeometry x="280" y="632" width="140" height="130" as="geometry" />
        </mxCell>
        <mxCell id="bknErVVYFALVzbJXiR_A-43" value="dct:title" style="text;strokeColor=none;fillColor=none;align=left;verticalAlign=top;spacingLeft=4;spacingRight=4;overflow=hidden;rotatable=0;points=[[0,0.5],[1,0.5]];portConstraint=eastwest;" parent="bknErVVYFALVzbJXiR_A-42" vertex="1">
          <mxGeometry y="26" width="140" height="26" as="geometry" />
        </mxCell>
        <mxCell id="bknErVVYFALVzbJXiR_A-44" value="dct:description" style="text;strokeColor=none;fillColor=none;align=left;verticalAlign=top;spacingLeft=4;spacingRight=4;overflow=hidden;rotatable=0;points=[[0,0.5],[1,0.5]];portConstraint=eastwest;" parent="bknErVVYFALVzbJXiR_A-42" vertex="1">
          <mxGeometry y="52" width="140" height="26" as="geometry" />
        </mxCell>
        <mxCell id="bknErVVYFALVzbJXiR_A-45" value="dct:issued" style="text;strokeColor=none;fillColor=none;align=left;verticalAlign=top;spacingLeft=4;spacingRight=4;overflow=hidden;rotatable=0;points=[[0,0.5],[1,0.5]];portConstraint=eastwest;" parent="bknErVVYFALVzbJXiR_A-42" vertex="1">
          <mxGeometry y="78" width="140" height="26" as="geometry" />
        </mxCell>
        <mxCell id="bknErVVYFALVzbJXiR_A-67" value="dct:modified" style="text;strokeColor=none;fillColor=none;align=left;verticalAlign=top;spacingLeft=4;spacingRight=4;overflow=hidden;rotatable=0;points=[[0,0.5],[1,0.5]];portConstraint=eastwest;" parent="bknErVVYFALVzbJXiR_A-42" vertex="1">
          <mxGeometry y="104" width="140" height="26" as="geometry" />
        </mxCell>
        <mxCell id="bknErVVYFALVzbJXiR_A-47" value="foaf:Agent" style="swimlane;fontStyle=0;childLayout=stackLayout;horizontal=1;startSize=26;fillColor=none;horizontalStack=0;resizeParent=1;resizeParentMax=0;resizeLast=0;collapsible=1;marginBottom=0;" parent="bknErVVYFALVzbJXiR_A-88" vertex="1">
          <mxGeometry y="192" width="140" height="78" as="geometry" />
        </mxCell>
        <mxCell id="bknErVVYFALVzbJXiR_A-49" value="agentType" style="text;strokeColor=none;fillColor=none;align=left;verticalAlign=top;spacingLeft=4;spacingRight=4;overflow=hidden;rotatable=0;points=[[0,0.5],[1,0.5]];portConstraint=eastwest;" parent="bknErVVYFALVzbJXiR_A-47" vertex="1">
          <mxGeometry y="26" width="140" height="26" as="geometry" />
        </mxCell>
        <mxCell id="bknErVVYFALVzbJXiR_A-50" value="agentName" style="text;strokeColor=none;fillColor=none;align=left;verticalAlign=top;spacingLeft=4;spacingRight=4;overflow=hidden;rotatable=0;points=[[0,0.5],[1,0.5]];portConstraint=eastwest;" parent="bknErVVYFALVzbJXiR_A-47" vertex="1">
          <mxGeometry y="52" width="140" height="26" as="geometry" />
        </mxCell>
        <mxCell id="bknErVVYFALVzbJXiR_A-51" value="" style="endArrow=block;endFill=1;html=1;edgeStyle=orthogonalEdgeStyle;align=left;verticalAlign=top;rounded=0;entryX=1;entryY=0.5;entryDx=0;entryDy=0;exitX=0;exitY=0.5;exitDx=0;exitDy=0;" parent="bknErVVYFALVzbJXiR_A-88" source="bknErVVYFALVzbJXiR_A-3" target="bknErVVYFALVzbJXiR_A-49" edge="1">
          <mxGeometry x="-1" relative="1" as="geometry">
            <mxPoint x="454" y="452" as="sourcePoint" />
            <mxPoint x="684" y="452.00199999999995" as="targetPoint" />
          </mxGeometry>
        </mxCell>
        <mxCell id="bknErVVYFALVzbJXiR_A-53" value="dct:publisher" style="text;html=1;align=center;verticalAlign=middle;resizable=0;points=[];autosize=1;strokeColor=none;fillColor=none;" parent="bknErVVYFALVzbJXiR_A-88" vertex="1">
          <mxGeometry x="170" y="262" width="80" height="20" as="geometry" />
        </mxCell>
        <mxCell id="bknErVVYFALVzbJXiR_A-54" value="dcat:Catalog" style="swimlane;fontStyle=0;childLayout=stackLayout;horizontal=1;startSize=26;fillColor=none;horizontalStack=0;resizeParent=1;resizeParentMax=0;resizeLast=0;collapsible=1;marginBottom=0;" parent="bknErVVYFALVzbJXiR_A-88" vertex="1">
          <mxGeometry y="382" width="140" height="260" as="geometry" />
        </mxCell>
        <mxCell id="bknErVVYFALVzbJXiR_A-55" value="dct:title" style="text;strokeColor=none;fillColor=none;align=left;verticalAlign=top;spacingLeft=4;spacingRight=4;overflow=hidden;rotatable=0;points=[[0,0.5],[1,0.5]];portConstraint=eastwest;" parent="bknErVVYFALVzbJXiR_A-54" vertex="1">
          <mxGeometry y="26" width="140" height="26" as="geometry" />
        </mxCell>
        <mxCell id="bknErVVYFALVzbJXiR_A-56" value="dct:description" style="text;strokeColor=none;fillColor=none;align=left;verticalAlign=top;spacingLeft=4;spacingRight=4;overflow=hidden;rotatable=0;points=[[0,0.5],[1,0.5]];portConstraint=eastwest;" parent="bknErVVYFALVzbJXiR_A-54" vertex="1">
          <mxGeometry y="52" width="140" height="26" as="geometry" />
        </mxCell>
        <mxCell id="bknErVVYFALVzbJXiR_A-57" value="dct:issued" style="text;strokeColor=none;fillColor=none;align=left;verticalAlign=top;spacingLeft=4;spacingRight=4;overflow=hidden;rotatable=0;points=[[0,0.5],[1,0.5]];portConstraint=eastwest;" parent="bknErVVYFALVzbJXiR_A-54" vertex="1">
          <mxGeometry y="78" width="140" height="26" as="geometry" />
        </mxCell>
        <mxCell id="bknErVVYFALVzbJXiR_A-58" value="dct:modified" style="text;strokeColor=none;fillColor=none;align=left;verticalAlign=top;spacingLeft=4;spacingRight=4;overflow=hidden;rotatable=0;points=[[0,0.5],[1,0.5]];portConstraint=eastwest;" parent="bknErVVYFALVzbJXiR_A-54" vertex="1">
          <mxGeometry y="104" width="140" height="26" as="geometry" />
        </mxCell>
        <mxCell id="bknErVVYFALVzbJXiR_A-59" value="dct:language" style="text;strokeColor=none;fillColor=none;align=left;verticalAlign=top;spacingLeft=4;spacingRight=4;overflow=hidden;rotatable=0;points=[[0,0.5],[1,0.5]];portConstraint=eastwest;" parent="bknErVVYFALVzbJXiR_A-54" vertex="1">
          <mxGeometry y="130" width="140" height="26" as="geometry" />
        </mxCell>
        <mxCell id="bknErVVYFALVzbJXiR_A-60" value="dct:license" style="text;strokeColor=none;fillColor=none;align=left;verticalAlign=top;spacingLeft=4;spacingRight=4;overflow=hidden;rotatable=0;points=[[0,0.5],[1,0.5]];portConstraint=eastwest;" parent="bknErVVYFALVzbJXiR_A-54" vertex="1">
          <mxGeometry y="156" width="140" height="26" as="geometry" />
        </mxCell>
        <mxCell id="bknErVVYFALVzbJXiR_A-61" value="dct:rights" style="text;strokeColor=none;fillColor=none;align=left;verticalAlign=top;spacingLeft=4;spacingRight=4;overflow=hidden;rotatable=0;points=[[0,0.5],[1,0.5]];portConstraint=eastwest;" parent="bknErVVYFALVzbJXiR_A-54" vertex="1">
          <mxGeometry y="182" width="140" height="26" as="geometry" />
        </mxCell>
        <mxCell id="bknErVVYFALVzbJXiR_A-62" value="dct:spatial" style="text;strokeColor=none;fillColor=none;align=left;verticalAlign=top;spacingLeft=4;spacingRight=4;overflow=hidden;rotatable=0;points=[[0,0.5],[1,0.5]];portConstraint=eastwest;" parent="bknErVVYFALVzbJXiR_A-54" vertex="1">
          <mxGeometry y="208" width="140" height="26" as="geometry" />
        </mxCell>
        <mxCell id="bknErVVYFALVzbJXiR_A-63" value="foaf:homepage" style="text;strokeColor=none;fillColor=none;align=left;verticalAlign=top;spacingLeft=4;spacingRight=4;overflow=hidden;rotatable=0;points=[[0,0.5],[1,0.5]];portConstraint=eastwest;" parent="bknErVVYFALVzbJXiR_A-54" vertex="1">
          <mxGeometry y="234" width="140" height="26" as="geometry" />
        </mxCell>
        <mxCell id="bknErVVYFALVzbJXiR_A-64" value="" style="endArrow=block;endFill=1;html=1;align=left;verticalAlign=top;rounded=0;entryX=0;entryY=0.5;entryDx=0;entryDy=0;exitX=1;exitY=0.5;exitDx=0;exitDy=0;" parent="bknErVVYFALVzbJXiR_A-88" source="bknErVVYFALVzbJXiR_A-59" target="bknErVVYFALVzbJXiR_A-17" edge="1">
          <mxGeometry x="-1" relative="1" as="geometry">
            <mxPoint x="340" y="472" as="sourcePoint" />
            <mxPoint x="200" y="442" as="targetPoint" />
          </mxGeometry>
        </mxCell>
        <mxCell id="bknErVVYFALVzbJXiR_A-66" value="dcat:dataset" style="text;html=1;align=center;verticalAlign=middle;resizable=0;points=[];autosize=1;strokeColor=none;fillColor=none;" parent="bknErVVYFALVzbJXiR_A-88" vertex="1">
          <mxGeometry x="170" y="412" width="80" height="20" as="geometry" />
        </mxCell>
        <mxCell id="bknErVVYFALVzbJXiR_A-68" value="" style="endArrow=block;endFill=1;html=1;align=left;verticalAlign=top;rounded=0;exitX=0.5;exitY=0;exitDx=0;exitDy=0;" parent="bknErVVYFALVzbJXiR_A-88" source="bknErVVYFALVzbJXiR_A-42" target="bknErVVYFALVzbJXiR_A-21" edge="1">
          <mxGeometry x="-1" relative="1" as="geometry">
            <mxPoint x="520" y="596" as="sourcePoint" />
            <mxPoint x="660" y="462" as="targetPoint" />
          </mxGeometry>
        </mxCell>
        <mxCell id="bknErVVYFALVzbJXiR_A-69" value="foaf:primaryTopic" style="text;html=1;align=center;verticalAlign=middle;resizable=0;points=[];autosize=1;strokeColor=none;fillColor=none;" parent="bknErVVYFALVzbJXiR_A-88" vertex="1">
          <mxGeometry x="344" y="592" width="110" height="20" as="geometry" />
        </mxCell>
        <mxCell id="bknErVVYFALVzbJXiR_A-71" value="dcat:DataService" style="swimlane;fontStyle=0;childLayout=stackLayout;horizontal=1;startSize=26;fillColor=none;horizontalStack=0;resizeParent=1;resizeParentMax=0;resizeLast=0;collapsible=1;marginBottom=0;" parent="bknErVVYFALVzbJXiR_A-88" vertex="1">
          <mxGeometry x="1000" y="42" width="160" height="208" as="geometry" />
        </mxCell>
        <mxCell id="bknErVVYFALVzbJXiR_A-72" value="dcat:endpointURL" style="text;strokeColor=none;fillColor=none;align=left;verticalAlign=top;spacingLeft=4;spacingRight=4;overflow=hidden;rotatable=0;points=[[0,0.5],[1,0.5]];portConstraint=eastwest;" parent="bknErVVYFALVzbJXiR_A-71" vertex="1">
          <mxGeometry y="26" width="160" height="26" as="geometry" />
        </mxCell>
        <mxCell id="bknErVVYFALVzbJXiR_A-73" value="dct:title" style="text;strokeColor=none;fillColor=none;align=left;verticalAlign=top;spacingLeft=4;spacingRight=4;overflow=hidden;rotatable=0;points=[[0,0.5],[1,0.5]];portConstraint=eastwest;" parent="bknErVVYFALVzbJXiR_A-71" vertex="1">
          <mxGeometry y="52" width="160" height="26" as="geometry" />
        </mxCell>
        <mxCell id="bknErVVYFALVzbJXiR_A-74" value="dcat:endpointDescription" style="text;strokeColor=none;fillColor=none;align=left;verticalAlign=top;spacingLeft=4;spacingRight=4;overflow=hidden;rotatable=0;points=[[0,0.5],[1,0.5]];portConstraint=eastwest;" parent="bknErVVYFALVzbJXiR_A-71" vertex="1">
          <mxGeometry y="78" width="160" height="26" as="geometry" />
        </mxCell>
        <mxCell id="bknErVVYFALVzbJXiR_A-75" value="dcatap:availability" style="text;strokeColor=none;fillColor=none;align=left;verticalAlign=top;spacingLeft=4;spacingRight=4;overflow=hidden;rotatable=0;points=[[0,0.5],[1,0.5]];portConstraint=eastwest;" parent="bknErVVYFALVzbJXiR_A-71" vertex="1">
          <mxGeometry y="104" width="160" height="26" as="geometry" />
        </mxCell>
        <mxCell id="bknErVVYFALVzbJXiR_A-76" value="dct:description" style="text;strokeColor=none;fillColor=none;align=left;verticalAlign=top;spacingLeft=4;spacingRight=4;overflow=hidden;rotatable=0;points=[[0,0.5],[1,0.5]];portConstraint=eastwest;" parent="bknErVVYFALVzbJXiR_A-71" vertex="1">
          <mxGeometry y="130" width="160" height="26" as="geometry" />
        </mxCell>
        <mxCell id="bknErVVYFALVzbJXiR_A-77" value="dct:license" style="text;strokeColor=none;fillColor=none;align=left;verticalAlign=top;spacingLeft=4;spacingRight=4;overflow=hidden;rotatable=0;points=[[0,0.5],[1,0.5]];portConstraint=eastwest;" parent="bknErVVYFALVzbJXiR_A-71" vertex="1">
          <mxGeometry y="156" width="160" height="26" as="geometry" />
        </mxCell>
        <mxCell id="bknErVVYFALVzbJXiR_A-78" value="dct:accessRights" style="text;strokeColor=none;fillColor=none;align=left;verticalAlign=top;spacingLeft=4;spacingRight=4;overflow=hidden;rotatable=0;points=[[0,0.5],[1,0.5]];portConstraint=eastwest;" parent="bknErVVYFALVzbJXiR_A-71" vertex="1">
          <mxGeometry y="182" width="160" height="26" as="geometry" />
        </mxCell>
        <mxCell id="bknErVVYFALVzbJXiR_A-79" value="" style="endArrow=block;endFill=1;html=1;align=left;verticalAlign=top;rounded=0;entryX=0.019;entryY=-0.115;entryDx=0;entryDy=0;exitX=1;exitY=0.5;exitDx=0;exitDy=0;entryPerimeter=0;" parent="bknErVVYFALVzbJXiR_A-88" source="bknErVVYFALVzbJXiR_A-33" target="bknErVVYFALVzbJXiR_A-76" edge="1">
          <mxGeometry x="-1" relative="1" as="geometry">
            <mxPoint x="420" y="321" as="sourcePoint" />
            <mxPoint x="730" y="426" as="targetPoint" />
          </mxGeometry>
        </mxCell>
        <mxCell id="bknErVVYFALVzbJXiR_A-80" value="dcat:accessService" style="text;html=1;align=center;verticalAlign=middle;resizable=0;points=[];autosize=1;strokeColor=none;fillColor=none;" parent="bknErVVYFALVzbJXiR_A-88" vertex="1">
          <mxGeometry x="840" y="142" width="120" height="20" as="geometry" />
        </mxCell>
        <mxCell id="bknErVVYFALVzbJXiR_A-81" value="" style="endArrow=block;endFill=1;html=1;align=left;verticalAlign=top;rounded=0;entryX=0;entryY=0.5;entryDx=0;entryDy=0;exitX=1;exitY=0.5;exitDx=0;exitDy=0;" parent="bknErVVYFALVzbJXiR_A-88" source="bknErVVYFALVzbJXiR_A-61" target="bknErVVYFALVzbJXiR_A-44" edge="1">
          <mxGeometry x="-1" relative="1" as="geometry">
            <mxPoint x="1230" y="606" as="sourcePoint" />
            <mxPoint x="1370" y="472" as="targetPoint" />
          </mxGeometry>
        </mxCell>
        <mxCell id="bknErVVYFALVzbJXiR_A-82" value="dcat:record" style="text;html=1;align=center;verticalAlign=middle;resizable=0;points=[];autosize=1;strokeColor=none;fillColor=none;" parent="bknErVVYFALVzbJXiR_A-88" vertex="1">
          <mxGeometry x="160" y="662" width="80" height="20" as="geometry" />
        </mxCell>
        <mxCell id="bknErVVYFALVzbJXiR_A-83" value="" style="endArrow=block;endFill=1;html=1;align=left;verticalAlign=top;rounded=0;exitX=0.5;exitY=0;exitDx=0;exitDy=0;" parent="bknErVVYFALVzbJXiR_A-88" source="bknErVVYFALVzbJXiR_A-54" edge="1">
          <mxGeometry x="-1" relative="1" as="geometry">
            <mxPoint x="770" y="632" as="sourcePoint" />
            <mxPoint x="70" y="272" as="targetPoint" />
          </mxGeometry>
        </mxCell>
        <mxCell id="bknErVVYFALVzbJXiR_A-84" value="dct:publisher" style="text;html=1;align=center;verticalAlign=middle;resizable=0;points=[];autosize=1;strokeColor=none;fillColor=none;" parent="bknErVVYFALVzbJXiR_A-88" vertex="1">
          <mxGeometry x="70" y="312" width="80" height="20" as="geometry" />
        </mxCell>
        <mxCell id="bknErVVYFALVzbJXiR_A-85" value="" style="endArrow=block;endFill=1;html=1;align=left;verticalAlign=top;rounded=0;entryX=0.475;entryY=1.077;entryDx=0;entryDy=0;exitX=0.5;exitY=1.077;exitDx=0;exitDy=0;exitPerimeter=0;entryPerimeter=0;edgeStyle=orthogonalEdgeStyle;" parent="bknErVVYFALVzbJXiR_A-88" source="bknErVVYFALVzbJXiR_A-63" target="bknErVVYFALVzbJXiR_A-78" edge="1">
          <mxGeometry x="-1" relative="1" as="geometry">
            <mxPoint x="170" y="555" as="sourcePoint" />
            <mxPoint x="310" y="421" as="targetPoint" />
            <Array as="points">
              <mxPoint x="70" y="782" />
              <mxPoint x="1076" y="782" />
            </Array>
          </mxGeometry>
        </mxCell>
        <mxCell id="bknErVVYFALVzbJXiR_A-87" value="dcat:service" style="text;html=1;align=center;verticalAlign=middle;resizable=0;points=[];autosize=1;strokeColor=none;fillColor=none;" parent="bknErVVYFALVzbJXiR_A-88" vertex="1">
          <mxGeometry x="560" y="762" width="80" height="20" as="geometry" />
        </mxCell>
        <mxCell id="bknErVVYFALVzbJXiR_A-90" value="&lt;font style=&quot;font-size: 20px;&quot;&gt;&lt;b&gt;DCAT-AP v&lt;/b&gt;&lt;/font&gt;&lt;span style=&quot;font-size: 20px;&quot;&gt;&lt;b&gt;2.0.1&lt;/b&gt;&lt;/span&gt;" style="text;html=1;align=center;verticalAlign=middle;resizable=0;points=[];autosize=1;strokeColor=none;fillColor=none;" parent="bknErVVYFALVzbJXiR_A-92" vertex="1">
          <mxGeometry x="80" y="20" width="160" height="20" as="geometry" />
        </mxCell>
      </root>
    </mxGraphModel>
  </diagram>
  <diagram id="_MmXgWug1yIcsEDMxp-0" name="statDCAT-AP">
    <mxGraphModel dx="2066" dy="1185" grid="1" gridSize="10" guides="1" tooltips="1" connect="1" arrows="1" fold="1" page="1" pageScale="1" pageWidth="827" pageHeight="1169" math="0" shadow="0">
      <root>
        <mxCell id="0" />
        <mxCell id="1" parent="0" />
        <mxCell id="zFAu-iARd-Dl6pFaYbDz-93" value="" style="group" vertex="1" connectable="0" parent="1">
          <mxGeometry x="21" y="20" width="890" height="880" as="geometry" />
        </mxCell>
        <mxCell id="zFAu-iARd-Dl6pFaYbDz-2" value="" style="rounded=0;whiteSpace=wrap;html=1;container=0;" vertex="1" parent="zFAu-iARd-Dl6pFaYbDz-93">
          <mxGeometry width="890" height="880" as="geometry" />
        </mxCell>
        <mxCell id="zFAu-iARd-Dl6pFaYbDz-4" value="dcat:Dataset" style="swimlane;fontStyle=0;childLayout=stackLayout;horizontal=1;startSize=26;fillColor=none;horizontalStack=0;resizeParent=1;resizeParentMax=0;resizeLast=0;collapsible=1;marginBottom=0;container=0;" vertex="1" parent="zFAu-iARd-Dl6pFaYbDz-93">
          <mxGeometry x="330" y="259" width="140" height="390" as="geometry">
            <mxRectangle x="480" y="750" width="100" height="26" as="alternateBounds" />
          </mxGeometry>
        </mxCell>
        <object label="dcat:Distribution" id="zFAu-iARd-Dl6pFaYbDz-17">
          <mxCell style="swimlane;fontStyle=0;childLayout=stackLayout;horizontal=1;startSize=26;fillColor=none;horizontalStack=0;resizeParent=1;resizeParentMax=0;resizeLast=0;collapsible=1;marginBottom=0;container=0;" vertex="1" parent="zFAu-iARd-Dl6pFaYbDz-93">
            <mxGeometry x="700" y="37" width="140" height="312" as="geometry" />
          </mxCell>
        </object>
        <mxCell id="zFAu-iARd-Dl6pFaYbDz-29" value="dctype:Dataset" style="html=1;container=0;" vertex="1" parent="zFAu-iARd-Dl6pFaYbDz-93">
          <mxGeometry x="330" y="179" width="140" height="30" as="geometry" />
        </mxCell>
        <mxCell id="zFAu-iARd-Dl6pFaYbDz-30" value="" style="endArrow=block;endSize=16;endFill=0;html=1;rounded=0;exitX=0.5;exitY=0;exitDx=0;exitDy=0;entryX=0.5;entryY=1;entryDx=0;entryDy=0;" edge="1" parent="zFAu-iARd-Dl6pFaYbDz-93" source="zFAu-iARd-Dl6pFaYbDz-4" target="zFAu-iARd-Dl6pFaYbDz-29">
          <mxGeometry width="160" relative="1" as="geometry">
            <mxPoint x="340" y="259" as="sourcePoint" />
            <mxPoint x="500" y="259" as="targetPoint" />
          </mxGeometry>
        </mxCell>
        <mxCell id="zFAu-iARd-Dl6pFaYbDz-31" value="" style="endArrow=block;endFill=1;html=1;edgeStyle=orthogonalEdgeStyle;align=left;verticalAlign=top;rounded=0;entryX=0;entryY=0.077;entryDx=0;entryDy=0;entryPerimeter=0;" edge="1" parent="zFAu-iARd-Dl6pFaYbDz-93" target="zFAu-iARd-Dl6pFaYbDz-27">
          <mxGeometry x="-1" relative="1" as="geometry">
            <mxPoint x="470" y="299" as="sourcePoint" />
            <mxPoint x="630" y="299" as="targetPoint" />
          </mxGeometry>
        </mxCell>
        <mxCell id="zFAu-iARd-Dl6pFaYbDz-32" value="dcat:distribution" style="text;html=1;align=center;verticalAlign=middle;resizable=0;points=[];autosize=1;strokeColor=none;fillColor=none;container=0;" vertex="1" parent="zFAu-iARd-Dl6pFaYbDz-93">
          <mxGeometry x="533" y="279" width="100" height="20" as="geometry" />
        </mxCell>
        <mxCell id="zFAu-iARd-Dl6pFaYbDz-33" value="dcat:CatalogRecord" style="swimlane;fontStyle=0;childLayout=stackLayout;horizontal=1;startSize=26;fillColor=none;horizontalStack=0;resizeParent=1;resizeParentMax=0;resizeLast=0;collapsible=1;marginBottom=0;container=0;" vertex="1" parent="zFAu-iARd-Dl6pFaYbDz-93">
          <mxGeometry x="330" y="719" width="140" height="130" as="geometry" />
        </mxCell>
        <mxCell id="zFAu-iARd-Dl6pFaYbDz-38" value="foaf:Agent" style="swimlane;fontStyle=0;childLayout=stackLayout;horizontal=1;startSize=26;fillColor=none;horizontalStack=0;resizeParent=1;resizeParentMax=0;resizeLast=0;collapsible=1;marginBottom=0;container=0;" vertex="1" parent="zFAu-iARd-Dl6pFaYbDz-93">
          <mxGeometry x="50" y="229" width="140" height="78" as="geometry" />
        </mxCell>
        <mxCell id="zFAu-iARd-Dl6pFaYbDz-42" value="dct:publisher" style="text;html=1;align=center;verticalAlign=middle;resizable=0;points=[];autosize=1;strokeColor=none;fillColor=none;container=0;" vertex="1" parent="zFAu-iARd-Dl6pFaYbDz-93">
          <mxGeometry x="220" y="299" width="80" height="20" as="geometry" />
        </mxCell>
        <mxCell id="zFAu-iARd-Dl6pFaYbDz-43" value="dcat:Catalog" style="swimlane;fontStyle=0;childLayout=stackLayout;horizontal=1;startSize=26;fillColor=none;horizontalStack=0;resizeParent=1;resizeParentMax=0;resizeLast=0;collapsible=1;marginBottom=0;container=0;" vertex="1" parent="zFAu-iARd-Dl6pFaYbDz-93">
          <mxGeometry x="50" y="419" width="140" height="260" as="geometry" />
        </mxCell>
        <mxCell id="zFAu-iARd-Dl6pFaYbDz-54" value="dcat:dataset" style="text;html=1;align=center;verticalAlign=middle;resizable=0;points=[];autosize=1;strokeColor=none;fillColor=none;container=0;" vertex="1" parent="zFAu-iARd-Dl6pFaYbDz-93">
          <mxGeometry x="217" y="449" width="80" height="20" as="geometry" />
        </mxCell>
        <mxCell id="zFAu-iARd-Dl6pFaYbDz-55" value="" style="endArrow=block;endFill=1;html=1;align=left;verticalAlign=top;rounded=0;exitX=0.5;exitY=0;exitDx=0;exitDy=0;" edge="1" parent="zFAu-iARd-Dl6pFaYbDz-93" source="zFAu-iARd-Dl6pFaYbDz-33">
          <mxGeometry x="-1" relative="1" as="geometry">
            <mxPoint x="570" y="633" as="sourcePoint" />
            <mxPoint x="400" y="647" as="targetPoint" />
          </mxGeometry>
        </mxCell>
        <mxCell id="zFAu-iARd-Dl6pFaYbDz-56" value="foaf:primaryTopic" style="text;html=1;align=center;verticalAlign=middle;resizable=0;points=[];autosize=1;strokeColor=none;fillColor=none;container=0;" vertex="1" parent="zFAu-iARd-Dl6pFaYbDz-93">
          <mxGeometry x="399" y="677" width="110" height="20" as="geometry" />
        </mxCell>
        <mxCell id="zFAu-iARd-Dl6pFaYbDz-68" value="dcat:record" style="text;html=1;align=center;verticalAlign=middle;resizable=0;points=[];autosize=1;strokeColor=none;fillColor=none;container=0;" vertex="1" parent="zFAu-iARd-Dl6pFaYbDz-93">
          <mxGeometry x="196" y="707" width="80" height="20" as="geometry" />
        </mxCell>
        <mxCell id="zFAu-iARd-Dl6pFaYbDz-69" value="" style="endArrow=block;endFill=1;html=1;align=left;verticalAlign=top;rounded=0;exitX=0.5;exitY=0;exitDx=0;exitDy=0;" edge="1" parent="zFAu-iARd-Dl6pFaYbDz-93" source="zFAu-iARd-Dl6pFaYbDz-43">
          <mxGeometry x="-1" relative="1" as="geometry">
            <mxPoint x="820" y="669" as="sourcePoint" />
            <mxPoint x="120" y="309" as="targetPoint" />
          </mxGeometry>
        </mxCell>
        <mxCell id="zFAu-iARd-Dl6pFaYbDz-70" value="dct:publisher" style="text;html=1;align=center;verticalAlign=middle;resizable=0;points=[];autosize=1;strokeColor=none;fillColor=none;container=0;" vertex="1" parent="zFAu-iARd-Dl6pFaYbDz-93">
          <mxGeometry x="120" y="349" width="80" height="20" as="geometry" />
        </mxCell>
        <mxCell id="zFAu-iARd-Dl6pFaYbDz-82" value="" style="endArrow=block;endFill=1;html=1;edgeStyle=orthogonalEdgeStyle;align=left;verticalAlign=top;rounded=0;entryX=0;entryY=0.077;entryDx=0;entryDy=0;entryPerimeter=0;strokeColor=#007FFF;" edge="1" parent="zFAu-iARd-Dl6pFaYbDz-93">
          <mxGeometry x="-1" relative="1" as="geometry">
            <mxPoint x="470" y="549" as="sourcePoint" />
            <mxPoint x="700" y="549.002" as="targetPoint" />
          </mxGeometry>
        </mxCell>
        <mxCell id="zFAu-iARd-Dl6pFaYbDz-5" value="dct:title" style="text;strokeColor=none;fillColor=none;align=left;verticalAlign=top;spacingLeft=4;spacingRight=4;overflow=hidden;rotatable=0;points=[[0,0.5],[1,0.5]];portConstraint=eastwest;container=0;" vertex="1" parent="zFAu-iARd-Dl6pFaYbDz-93">
          <mxGeometry x="330" y="285" width="140" height="26" as="geometry" />
        </mxCell>
        <mxCell id="zFAu-iARd-Dl6pFaYbDz-6" value="dct:description" style="text;strokeColor=none;fillColor=none;align=left;verticalAlign=top;spacingLeft=4;spacingRight=4;overflow=hidden;rotatable=0;points=[[0,0.5],[1,0.5]];portConstraint=eastwest;container=0;" vertex="1" parent="zFAu-iARd-Dl6pFaYbDz-93">
          <mxGeometry x="330" y="311" width="140" height="26" as="geometry" />
        </mxCell>
        <mxCell id="zFAu-iARd-Dl6pFaYbDz-7" value="dct:issued&#xa;" style="text;strokeColor=none;fillColor=none;align=left;verticalAlign=top;spacingLeft=4;spacingRight=4;overflow=hidden;rotatable=0;points=[[0,0.5],[1,0.5]];portConstraint=eastwest;container=0;" vertex="1" parent="zFAu-iARd-Dl6pFaYbDz-93">
          <mxGeometry x="330" y="337" width="140" height="26" as="geometry" />
        </mxCell>
        <mxCell id="zFAu-iARd-Dl6pFaYbDz-8" value="dct:modified" style="text;strokeColor=none;fillColor=none;align=left;verticalAlign=top;spacingLeft=4;spacingRight=4;overflow=hidden;rotatable=0;points=[[0,0.5],[1,0.5]];portConstraint=eastwest;container=0;" vertex="1" parent="zFAu-iARd-Dl6pFaYbDz-93">
          <mxGeometry x="330" y="363" width="140" height="26" as="geometry" />
        </mxCell>
        <mxCell id="zFAu-iARd-Dl6pFaYbDz-9" value="dct:identifier" style="text;strokeColor=none;fillColor=none;align=left;verticalAlign=top;spacingLeft=4;spacingRight=4;overflow=hidden;rotatable=0;points=[[0,0.5],[1,0.5]];portConstraint=eastwest;container=0;" vertex="1" parent="zFAu-iARd-Dl6pFaYbDz-93">
          <mxGeometry x="330" y="389" width="140" height="26" as="geometry" />
        </mxCell>
        <mxCell id="zFAu-iARd-Dl6pFaYbDz-10" value="dcat:keyword" style="text;strokeColor=none;fillColor=none;align=left;verticalAlign=top;spacingLeft=4;spacingRight=4;overflow=hidden;rotatable=0;points=[[0,0.5],[1,0.5]];portConstraint=eastwest;container=0;" vertex="1" parent="zFAu-iARd-Dl6pFaYbDz-93">
          <mxGeometry x="330" y="415" width="140" height="26" as="geometry" />
        </mxCell>
        <mxCell id="zFAu-iARd-Dl6pFaYbDz-11" value="dct:language" style="text;strokeColor=none;fillColor=none;align=left;verticalAlign=top;spacingLeft=4;spacingRight=4;overflow=hidden;rotatable=0;points=[[0,0.5],[1,0.5]];portConstraint=eastwest;container=0;" vertex="1" parent="zFAu-iARd-Dl6pFaYbDz-93">
          <mxGeometry x="330" y="441" width="140" height="26" as="geometry" />
        </mxCell>
        <mxCell id="zFAu-iARd-Dl6pFaYbDz-12" value="dcat:contactPoint" style="text;strokeColor=none;fillColor=none;align=left;verticalAlign=top;spacingLeft=4;spacingRight=4;overflow=hidden;rotatable=0;points=[[0,0.5],[1,0.5]];portConstraint=eastwest;container=0;" vertex="1" parent="zFAu-iARd-Dl6pFaYbDz-93">
          <mxGeometry x="330" y="467" width="140" height="26" as="geometry" />
        </mxCell>
        <mxCell id="zFAu-iARd-Dl6pFaYbDz-13" value="dct:temporal" style="text;strokeColor=none;fillColor=none;align=left;verticalAlign=top;spacingLeft=4;spacingRight=4;overflow=hidden;rotatable=0;points=[[0,0.5],[1,0.5]];portConstraint=eastwest;container=0;" vertex="1" parent="zFAu-iARd-Dl6pFaYbDz-93">
          <mxGeometry x="330" y="493" width="140" height="26" as="geometry" />
        </mxCell>
        <mxCell id="zFAu-iARd-Dl6pFaYbDz-14" value="dct:spatial" style="text;strokeColor=none;fillColor=none;align=left;verticalAlign=top;spacingLeft=4;spacingRight=4;overflow=hidden;rotatable=0;points=[[0,0.5],[1,0.5]];portConstraint=eastwest;container=0;" vertex="1" parent="zFAu-iARd-Dl6pFaYbDz-93">
          <mxGeometry x="330" y="519" width="140" height="26" as="geometry" />
        </mxCell>
        <mxCell id="zFAu-iARd-Dl6pFaYbDz-15" value="dct:accrualPeriodicity" style="text;strokeColor=none;fillColor=none;align=left;verticalAlign=top;spacingLeft=4;spacingRight=4;overflow=hidden;rotatable=0;points=[[0,0.5],[1,0.5]];portConstraint=eastwest;container=0;" vertex="1" parent="zFAu-iARd-Dl6pFaYbDz-93">
          <mxGeometry x="330" y="545" width="140" height="26" as="geometry" />
        </mxCell>
        <mxCell id="zFAu-iARd-Dl6pFaYbDz-16" value="dcat:landingPage" style="text;strokeColor=none;fillColor=none;align=left;verticalAlign=top;spacingLeft=4;spacingRight=4;overflow=hidden;rotatable=0;points=[[0,0.5],[1,0.5]];portConstraint=eastwest;container=0;" vertex="1" parent="zFAu-iARd-Dl6pFaYbDz-93">
          <mxGeometry x="330" y="571" width="140" height="26" as="geometry" />
        </mxCell>
        <mxCell id="zFAu-iARd-Dl6pFaYbDz-90" value="stat:numSeries" style="text;strokeColor=none;fillColor=none;align=left;verticalAlign=top;spacingLeft=4;spacingRight=4;overflow=hidden;rotatable=0;points=[[0,0.5],[1,0.5]];portConstraint=eastwest;fontSize=12;fontColor=#007FFF;fontStyle=1;container=0;" vertex="1" parent="zFAu-iARd-Dl6pFaYbDz-93">
          <mxGeometry x="330" y="597" width="140" height="26" as="geometry" />
        </mxCell>
        <mxCell id="zFAu-iARd-Dl6pFaYbDz-91" value="stat:statUnitMeasure" style="text;strokeColor=none;fillColor=none;align=left;verticalAlign=top;spacingLeft=4;spacingRight=4;overflow=hidden;rotatable=0;points=[[0,0.5],[1,0.5]];portConstraint=eastwest;fontSize=12;fontColor=#007FFF;fontStyle=1;container=0;" vertex="1" parent="zFAu-iARd-Dl6pFaYbDz-93">
          <mxGeometry x="330" y="623" width="140" height="26" as="geometry" />
        </mxCell>
        <mxCell id="zFAu-iARd-Dl6pFaYbDz-18" value="dct:title" style="text;strokeColor=none;fillColor=none;align=left;verticalAlign=top;spacingLeft=4;spacingRight=4;overflow=hidden;rotatable=0;points=[[0,0.5],[1,0.5]];portConstraint=eastwest;container=0;" vertex="1" parent="zFAu-iARd-Dl6pFaYbDz-93">
          <mxGeometry x="700" y="63" width="140" height="26" as="geometry" />
        </mxCell>
        <mxCell id="zFAu-iARd-Dl6pFaYbDz-19" value="dct:description" style="text;strokeColor=none;fillColor=none;align=left;verticalAlign=top;spacingLeft=4;spacingRight=4;overflow=hidden;rotatable=0;points=[[0,0.5],[1,0.5]];portConstraint=eastwest;container=0;" vertex="1" parent="zFAu-iARd-Dl6pFaYbDz-93">
          <mxGeometry x="700" y="89" width="140" height="26" as="geometry" />
        </mxCell>
        <mxCell id="zFAu-iARd-Dl6pFaYbDz-20" value="dct:issued&#xa;" style="text;strokeColor=none;fillColor=none;align=left;verticalAlign=top;spacingLeft=4;spacingRight=4;overflow=hidden;rotatable=0;points=[[0,0.5],[1,0.5]];portConstraint=eastwest;container=0;" vertex="1" parent="zFAu-iARd-Dl6pFaYbDz-93">
          <mxGeometry x="700" y="115" width="140" height="26" as="geometry" />
        </mxCell>
        <mxCell id="zFAu-iARd-Dl6pFaYbDz-21" value="dct:modified" style="text;strokeColor=none;fillColor=none;align=left;verticalAlign=top;spacingLeft=4;spacingRight=4;overflow=hidden;rotatable=0;points=[[0,0.5],[1,0.5]];portConstraint=eastwest;container=0;" vertex="1" parent="zFAu-iARd-Dl6pFaYbDz-93">
          <mxGeometry x="700" y="141" width="140" height="26" as="geometry" />
        </mxCell>
        <mxCell id="zFAu-iARd-Dl6pFaYbDz-22" value="dct:license" style="text;strokeColor=none;fillColor=none;align=left;verticalAlign=top;spacingLeft=4;spacingRight=4;overflow=hidden;rotatable=0;points=[[0,0.5],[1,0.5]];portConstraint=eastwest;container=0;" vertex="1" parent="zFAu-iARd-Dl6pFaYbDz-93">
          <mxGeometry x="700" y="167" width="140" height="26" as="geometry" />
        </mxCell>
        <mxCell id="zFAu-iARd-Dl6pFaYbDz-23" value="dct:rights" style="text;strokeColor=none;fillColor=none;align=left;verticalAlign=top;spacingLeft=4;spacingRight=4;overflow=hidden;rotatable=0;points=[[0,0.5],[1,0.5]];portConstraint=eastwest;container=0;" vertex="1" parent="zFAu-iARd-Dl6pFaYbDz-93">
          <mxGeometry x="700" y="193" width="140" height="26" as="geometry" />
        </mxCell>
        <mxCell id="zFAu-iARd-Dl6pFaYbDz-24" value="dcat:accessURL" style="text;strokeColor=none;fillColor=none;align=left;verticalAlign=top;spacingLeft=4;spacingRight=4;overflow=hidden;rotatable=0;points=[[0,0.5],[1,0.5]];portConstraint=eastwest;container=0;" vertex="1" parent="zFAu-iARd-Dl6pFaYbDz-93">
          <mxGeometry x="700" y="219" width="140" height="26" as="geometry" />
        </mxCell>
        <mxCell id="zFAu-iARd-Dl6pFaYbDz-25" value="dcat:downloadURL" style="text;strokeColor=none;fillColor=none;align=left;verticalAlign=top;spacingLeft=4;spacingRight=4;overflow=hidden;rotatable=0;points=[[0,0.5],[1,0.5]];portConstraint=eastwest;container=0;" vertex="1" parent="zFAu-iARd-Dl6pFaYbDz-93">
          <mxGeometry x="700" y="245" width="140" height="26" as="geometry" />
        </mxCell>
        <mxCell id="zFAu-iARd-Dl6pFaYbDz-26" value="dcat:mediaType" style="text;strokeColor=none;fillColor=none;align=left;verticalAlign=top;spacingLeft=4;spacingRight=4;overflow=hidden;rotatable=0;points=[[0,0.5],[1,0.5]];portConstraint=eastwest;container=0;" vertex="1" parent="zFAu-iARd-Dl6pFaYbDz-93">
          <mxGeometry x="700" y="271" width="140" height="26" as="geometry" />
        </mxCell>
        <mxCell id="zFAu-iARd-Dl6pFaYbDz-27" value="dct:format" style="text;strokeColor=none;fillColor=none;align=left;verticalAlign=top;spacingLeft=4;spacingRight=4;overflow=hidden;rotatable=0;points=[[0,0.5],[1,0.5]];portConstraint=eastwest;container=0;" vertex="1" parent="zFAu-iARd-Dl6pFaYbDz-93">
          <mxGeometry x="700" y="297" width="140" height="26" as="geometry" />
        </mxCell>
        <mxCell id="zFAu-iARd-Dl6pFaYbDz-28" value="dcat:byteSize" style="text;strokeColor=none;fillColor=none;align=left;verticalAlign=top;spacingLeft=4;spacingRight=4;overflow=hidden;rotatable=0;points=[[0,0.5],[1,0.5]];portConstraint=eastwest;container=0;" vertex="1" parent="zFAu-iARd-Dl6pFaYbDz-93">
          <mxGeometry x="700" y="323" width="140" height="26" as="geometry" />
        </mxCell>
        <mxCell id="zFAu-iARd-Dl6pFaYbDz-34" value="dct:title" style="text;strokeColor=none;fillColor=none;align=left;verticalAlign=top;spacingLeft=4;spacingRight=4;overflow=hidden;rotatable=0;points=[[0,0.5],[1,0.5]];portConstraint=eastwest;container=0;" vertex="1" parent="zFAu-iARd-Dl6pFaYbDz-93">
          <mxGeometry x="330" y="745" width="140" height="26" as="geometry" />
        </mxCell>
        <mxCell id="zFAu-iARd-Dl6pFaYbDz-35" value="dct:description" style="text;strokeColor=none;fillColor=none;align=left;verticalAlign=top;spacingLeft=4;spacingRight=4;overflow=hidden;rotatable=0;points=[[0,0.5],[1,0.5]];portConstraint=eastwest;container=0;" vertex="1" parent="zFAu-iARd-Dl6pFaYbDz-93">
          <mxGeometry x="330" y="771" width="140" height="26" as="geometry" />
        </mxCell>
        <mxCell id="zFAu-iARd-Dl6pFaYbDz-36" value="dct:issued" style="text;strokeColor=none;fillColor=none;align=left;verticalAlign=top;spacingLeft=4;spacingRight=4;overflow=hidden;rotatable=0;points=[[0,0.5],[1,0.5]];portConstraint=eastwest;container=0;" vertex="1" parent="zFAu-iARd-Dl6pFaYbDz-93">
          <mxGeometry x="330" y="797" width="140" height="26" as="geometry" />
        </mxCell>
        <mxCell id="zFAu-iARd-Dl6pFaYbDz-37" value="dct:modified" style="text;strokeColor=none;fillColor=none;align=left;verticalAlign=top;spacingLeft=4;spacingRight=4;overflow=hidden;rotatable=0;points=[[0,0.5],[1,0.5]];portConstraint=eastwest;container=0;" vertex="1" parent="zFAu-iARd-Dl6pFaYbDz-93">
          <mxGeometry x="330" y="823" width="140" height="26" as="geometry" />
        </mxCell>
        <mxCell id="zFAu-iARd-Dl6pFaYbDz-39" value="agentType" style="text;strokeColor=none;fillColor=none;align=left;verticalAlign=top;spacingLeft=4;spacingRight=4;overflow=hidden;rotatable=0;points=[[0,0.5],[1,0.5]];portConstraint=eastwest;container=0;" vertex="1" parent="zFAu-iARd-Dl6pFaYbDz-93">
          <mxGeometry x="50" y="255" width="140" height="26" as="geometry" />
        </mxCell>
        <mxCell id="zFAu-iARd-Dl6pFaYbDz-41" value="" style="endArrow=block;endFill=1;html=1;edgeStyle=orthogonalEdgeStyle;align=left;verticalAlign=top;rounded=0;entryX=1;entryY=0.5;entryDx=0;entryDy=0;exitX=0;exitY=0.5;exitDx=0;exitDy=0;" edge="1" parent="zFAu-iARd-Dl6pFaYbDz-93" source="zFAu-iARd-Dl6pFaYbDz-5" target="zFAu-iARd-Dl6pFaYbDz-39">
          <mxGeometry x="-1" relative="1" as="geometry">
            <mxPoint x="504" y="489" as="sourcePoint" />
            <mxPoint x="734" y="489.00199999999995" as="targetPoint" />
          </mxGeometry>
        </mxCell>
        <mxCell id="zFAu-iARd-Dl6pFaYbDz-40" value="agentName" style="text;strokeColor=none;fillColor=none;align=left;verticalAlign=top;spacingLeft=4;spacingRight=4;overflow=hidden;rotatable=0;points=[[0,0.5],[1,0.5]];portConstraint=eastwest;container=0;" vertex="1" parent="zFAu-iARd-Dl6pFaYbDz-93">
          <mxGeometry x="50" y="281" width="140" height="26" as="geometry" />
        </mxCell>
        <mxCell id="zFAu-iARd-Dl6pFaYbDz-44" value="dct:title" style="text;strokeColor=none;fillColor=none;align=left;verticalAlign=top;spacingLeft=4;spacingRight=4;overflow=hidden;rotatable=0;points=[[0,0.5],[1,0.5]];portConstraint=eastwest;container=0;" vertex="1" parent="zFAu-iARd-Dl6pFaYbDz-93">
          <mxGeometry x="50" y="445" width="140" height="26" as="geometry" />
        </mxCell>
        <mxCell id="zFAu-iARd-Dl6pFaYbDz-45" value="dct:description" style="text;strokeColor=none;fillColor=none;align=left;verticalAlign=top;spacingLeft=4;spacingRight=4;overflow=hidden;rotatable=0;points=[[0,0.5],[1,0.5]];portConstraint=eastwest;container=0;" vertex="1" parent="zFAu-iARd-Dl6pFaYbDz-93">
          <mxGeometry x="50" y="471" width="140" height="26" as="geometry" />
        </mxCell>
        <mxCell id="zFAu-iARd-Dl6pFaYbDz-46" value="dct:issued" style="text;strokeColor=none;fillColor=none;align=left;verticalAlign=top;spacingLeft=4;spacingRight=4;overflow=hidden;rotatable=0;points=[[0,0.5],[1,0.5]];portConstraint=eastwest;container=0;" vertex="1" parent="zFAu-iARd-Dl6pFaYbDz-93">
          <mxGeometry x="50" y="497" width="140" height="26" as="geometry" />
        </mxCell>
        <mxCell id="zFAu-iARd-Dl6pFaYbDz-47" value="dct:modified" style="text;strokeColor=none;fillColor=none;align=left;verticalAlign=top;spacingLeft=4;spacingRight=4;overflow=hidden;rotatable=0;points=[[0,0.5],[1,0.5]];portConstraint=eastwest;container=0;" vertex="1" parent="zFAu-iARd-Dl6pFaYbDz-93">
          <mxGeometry x="50" y="523" width="140" height="26" as="geometry" />
        </mxCell>
        <mxCell id="zFAu-iARd-Dl6pFaYbDz-48" value="dct:language" style="text;strokeColor=none;fillColor=none;align=left;verticalAlign=top;spacingLeft=4;spacingRight=4;overflow=hidden;rotatable=0;points=[[0,0.5],[1,0.5]];portConstraint=eastwest;container=0;" vertex="1" parent="zFAu-iARd-Dl6pFaYbDz-93">
          <mxGeometry x="50" y="549" width="140" height="26" as="geometry" />
        </mxCell>
        <mxCell id="zFAu-iARd-Dl6pFaYbDz-53" value="" style="endArrow=block;endFill=1;html=1;align=left;verticalAlign=top;rounded=0;entryX=0;entryY=0.5;entryDx=0;entryDy=0;exitX=1;exitY=0.5;exitDx=0;exitDy=0;" edge="1" parent="zFAu-iARd-Dl6pFaYbDz-93" source="zFAu-iARd-Dl6pFaYbDz-48" target="zFAu-iARd-Dl6pFaYbDz-10">
          <mxGeometry x="-1" relative="1" as="geometry">
            <mxPoint x="390" y="509" as="sourcePoint" />
            <mxPoint x="250" y="479" as="targetPoint" />
          </mxGeometry>
        </mxCell>
        <mxCell id="zFAu-iARd-Dl6pFaYbDz-49" value="dct:license" style="text;strokeColor=none;fillColor=none;align=left;verticalAlign=top;spacingLeft=4;spacingRight=4;overflow=hidden;rotatable=0;points=[[0,0.5],[1,0.5]];portConstraint=eastwest;container=0;" vertex="1" parent="zFAu-iARd-Dl6pFaYbDz-93">
          <mxGeometry x="50" y="575" width="140" height="26" as="geometry" />
        </mxCell>
        <mxCell id="zFAu-iARd-Dl6pFaYbDz-50" value="dct:rights" style="text;strokeColor=none;fillColor=none;align=left;verticalAlign=top;spacingLeft=4;spacingRight=4;overflow=hidden;rotatable=0;points=[[0,0.5],[1,0.5]];portConstraint=eastwest;container=0;" vertex="1" parent="zFAu-iARd-Dl6pFaYbDz-93">
          <mxGeometry x="50" y="601" width="140" height="26" as="geometry" />
        </mxCell>
        <mxCell id="zFAu-iARd-Dl6pFaYbDz-67" value="" style="endArrow=block;endFill=1;html=1;align=left;verticalAlign=top;rounded=0;entryX=0;entryY=0.5;entryDx=0;entryDy=0;exitX=1;exitY=0.5;exitDx=0;exitDy=0;" edge="1" parent="zFAu-iARd-Dl6pFaYbDz-93" source="zFAu-iARd-Dl6pFaYbDz-50" target="zFAu-iARd-Dl6pFaYbDz-35">
          <mxGeometry x="-1" relative="1" as="geometry">
            <mxPoint x="1280" y="643" as="sourcePoint" />
            <mxPoint x="1420" y="509" as="targetPoint" />
          </mxGeometry>
        </mxCell>
        <mxCell id="zFAu-iARd-Dl6pFaYbDz-51" value="dct:spatial" style="text;strokeColor=none;fillColor=none;align=left;verticalAlign=top;spacingLeft=4;spacingRight=4;overflow=hidden;rotatable=0;points=[[0,0.5],[1,0.5]];portConstraint=eastwest;container=0;" vertex="1" parent="zFAu-iARd-Dl6pFaYbDz-93">
          <mxGeometry x="50" y="627" width="140" height="26" as="geometry" />
        </mxCell>
        <mxCell id="zFAu-iARd-Dl6pFaYbDz-52" value="foaf:homepage" style="text;strokeColor=none;fillColor=none;align=left;verticalAlign=top;spacingLeft=4;spacingRight=4;overflow=hidden;rotatable=0;points=[[0,0.5],[1,0.5]];portConstraint=eastwest;container=0;" vertex="1" parent="zFAu-iARd-Dl6pFaYbDz-93">
          <mxGeometry x="50" y="653" width="140" height="26" as="geometry" />
        </mxCell>
        <mxCell id="zFAu-iARd-Dl6pFaYbDz-73" value="&lt;font style=&quot;font-size: 15px;&quot;&gt;&lt;b style=&quot;font-size: 20px;&quot;&gt;statDCAT-AP v1.0.0&lt;br&gt;&lt;/b&gt;&lt;font style=&quot;font-size: 15px;&quot;&gt;(based on DCAT-AP v1.1&lt;/font&gt;&lt;/font&gt;&lt;font style=&quot;font-size: 15px;&quot;&gt;)&lt;/font&gt;" style="text;html=1;align=center;verticalAlign=middle;resizable=0;points=[];autosize=1;strokeColor=none;fillColor=none;container=0;" vertex="1" parent="zFAu-iARd-Dl6pFaYbDz-93">
          <mxGeometry x="51" y="18" width="200" height="40" as="geometry" />
        </mxCell>
        <mxCell id="zFAu-iARd-Dl6pFaYbDz-75" value="&lt;font style=&quot;font-size: 12px;&quot;&gt;«optional»&lt;br&gt;&lt;b&gt;qb:AttributeProperty&lt;/b&gt;&lt;/font&gt;" style="html=1;fontSize=15;fillColor=#CCE5FF;container=0;" vertex="1" parent="zFAu-iARd-Dl6pFaYbDz-93">
          <mxGeometry x="699" y="390" width="140" height="40" as="geometry" />
        </mxCell>
        <mxCell id="zFAu-iARd-Dl6pFaYbDz-76" value="&lt;font style=&quot;font-size: 12px;&quot;&gt;«optional»&lt;br&gt;&lt;b&gt;qb:DimensionProperty&lt;/b&gt;&lt;/font&gt;" style="html=1;fontSize=15;fillColor=#CCE5FF;container=0;" vertex="1" parent="zFAu-iARd-Dl6pFaYbDz-93">
          <mxGeometry x="699" y="460" width="140" height="40" as="geometry" />
        </mxCell>
        <mxCell id="zFAu-iARd-Dl6pFaYbDz-77" value="&lt;font style=&quot;font-size: 12px;&quot;&gt;«optional»&lt;br&gt;&lt;b&gt;qb:Annotation&lt;/b&gt;&lt;/font&gt;" style="html=1;fontSize=15;fillColor=#CCE5FF;container=0;" vertex="1" parent="zFAu-iARd-Dl6pFaYbDz-93">
          <mxGeometry x="699" y="530" width="140" height="40" as="geometry" />
        </mxCell>
        <mxCell id="zFAu-iARd-Dl6pFaYbDz-78" value="" style="endArrow=block;endFill=1;html=1;edgeStyle=orthogonalEdgeStyle;align=left;verticalAlign=top;rounded=0;entryX=0;entryY=0.077;entryDx=0;entryDy=0;entryPerimeter=0;strokeColor=#007FFF;" edge="1" parent="zFAu-iARd-Dl6pFaYbDz-93">
          <mxGeometry x="-1" relative="1" as="geometry">
            <mxPoint x="471" y="410" as="sourcePoint" />
            <mxPoint x="701" y="410.00199999999995" as="targetPoint" />
          </mxGeometry>
        </mxCell>
        <mxCell id="zFAu-iARd-Dl6pFaYbDz-79" value="&lt;font color=&quot;#007fff&quot;&gt;&lt;b&gt;«optional»&lt;br&gt;stat:attribute&lt;/b&gt;&lt;/font&gt;" style="text;html=1;align=center;verticalAlign=middle;resizable=0;points=[];autosize=1;strokeColor=none;fillColor=none;container=0;" vertex="1" parent="zFAu-iARd-Dl6pFaYbDz-93">
          <mxGeometry x="539" y="395" width="90" height="30" as="geometry" />
        </mxCell>
        <mxCell id="zFAu-iARd-Dl6pFaYbDz-80" value="" style="endArrow=block;endFill=1;html=1;edgeStyle=orthogonalEdgeStyle;align=left;verticalAlign=top;rounded=0;entryX=0;entryY=0.077;entryDx=0;entryDy=0;entryPerimeter=0;strokeColor=#007FFF;" edge="1" parent="zFAu-iARd-Dl6pFaYbDz-93">
          <mxGeometry x="-1" relative="1" as="geometry">
            <mxPoint x="470" y="480" as="sourcePoint" />
            <mxPoint x="700" y="480.00199999999995" as="targetPoint" />
          </mxGeometry>
        </mxCell>
        <mxCell id="zFAu-iARd-Dl6pFaYbDz-85" value="&lt;font color=&quot;#007fff&quot;&gt;&lt;b&gt;«optional»&lt;br&gt;stat:dimension&lt;/b&gt;&lt;/font&gt;" style="text;html=1;align=center;verticalAlign=middle;resizable=0;points=[];autosize=1;strokeColor=none;fillColor=none;container=0;" vertex="1" parent="zFAu-iARd-Dl6pFaYbDz-93">
          <mxGeometry x="534" y="464" width="100" height="30" as="geometry" />
        </mxCell>
        <mxCell id="zFAu-iARd-Dl6pFaYbDz-87" value="&lt;font color=&quot;#007fff&quot;&gt;&lt;b&gt;«optional»&lt;br&gt;dqv:hasQualityAnnotation&lt;/b&gt;&lt;/font&gt;" style="text;html=1;align=center;verticalAlign=middle;resizable=0;points=[];autosize=1;strokeColor=none;fillColor=none;container=0;" vertex="1" parent="zFAu-iARd-Dl6pFaYbDz-93">
          <mxGeometry x="499" y="534" width="170" height="30" as="geometry" />
        </mxCell>
      </root>
    </mxGraphModel>
  </diagram>
  <diagram id="ChM2KZReSrhay-U6CIiK" name="SDMX mapping to StatDCAT-AP">
    <mxGraphModel dx="1604" dy="1394" grid="1" gridSize="10" guides="1" tooltips="1" connect="1" arrows="1" fold="1" page="1" pageScale="1" pageWidth="827" pageHeight="1169" math="0" shadow="0">
      <root>
        <mxCell id="0" />
        <mxCell id="1" parent="0" />
        <mxCell id="JxYig3Qd_sJgL82QAQI8-210" value="" style="group" vertex="1" connectable="0" parent="1">
          <mxGeometry x="870" y="390" width="1560" height="890" as="geometry" />
        </mxCell>
        <mxCell id="JxYig3Qd_sJgL82QAQI8-205" value="" style="rounded=0;whiteSpace=wrap;html=1;fontSize=16;fontColor=#FFFFFF;fillColor=#FFFFFF;" vertex="1" parent="JxYig3Qd_sJgL82QAQI8-210">
          <mxGeometry width="1560" height="890" as="geometry" />
        </mxCell>
        <mxCell id="JxYig3Qd_sJgL82QAQI8-75" value="These are&lt;br&gt;SDMX&amp;nbsp;Classes" style="rounded=1;whiteSpace=wrap;html=1;fontSize=16;fontColor=#FFFFFF;fillColor=#3399FF;" vertex="1" parent="JxYig3Qd_sJgL82QAQI8-210">
          <mxGeometry x="1289" y="706" width="150" height="60" as="geometry" />
        </mxCell>
        <mxCell id="JxYig3Qd_sJgL82QAQI8-83" value="" style="group" vertex="1" connectable="0" parent="JxYig3Qd_sJgL82QAQI8-210">
          <mxGeometry x="949" y="226" width="540" height="300" as="geometry" />
        </mxCell>
        <mxCell id="JxYig3Qd_sJgL82QAQI8-72" value="" style="html=1;fontSize=12;fontColor=#007FFF;fillColor=#FFFFFF;align=center;" vertex="1" parent="JxYig3Qd_sJgL82QAQI8-83">
          <mxGeometry width="540" height="300" as="geometry" />
        </mxCell>
        <mxCell id="JxYig3Qd_sJgL82QAQI8-74" value="dcat:Distribution" style="text;html=1;align=center;verticalAlign=middle;resizable=0;points=[];autosize=1;strokeColor=none;fillColor=none;fontSize=16;fontColor=#000000;" vertex="1" parent="JxYig3Qd_sJgL82QAQI8-83">
          <mxGeometry x="195" y="30" width="130" height="20" as="geometry" />
        </mxCell>
        <mxCell id="JxYig3Qd_sJgL82QAQI8-76" value="Registered Data&lt;br&gt;Source" style="rounded=1;whiteSpace=wrap;html=1;fontSize=16;fontColor=#FFFFFF;fillColor=#3399FF;" vertex="1" parent="JxYig3Qd_sJgL82QAQI8-83">
          <mxGeometry x="370" y="70" width="150" height="60" as="geometry" />
        </mxCell>
        <mxCell id="JxYig3Qd_sJgL82QAQI8-77" value="Provision&lt;br&gt;Agreement" style="rounded=1;whiteSpace=wrap;html=1;fontSize=16;fontColor=#FFFFFF;fillColor=#3399FF;" vertex="1" parent="JxYig3Qd_sJgL82QAQI8-83">
          <mxGeometry x="30" y="70" width="120" height="60" as="geometry" />
        </mxCell>
        <mxCell id="JxYig3Qd_sJgL82QAQI8-78" value="Data&lt;br&gt;Provider" style="rounded=1;whiteSpace=wrap;html=1;fontSize=16;fontColor=#FFFFFF;fillColor=#3399FF;" vertex="1" parent="JxYig3Qd_sJgL82QAQI8-83">
          <mxGeometry x="170" y="200" width="120" height="60" as="geometry" />
        </mxCell>
        <mxCell id="JxYig3Qd_sJgL82QAQI8-79" value="Data Provider&lt;br&gt;Scheme" style="rounded=1;whiteSpace=wrap;html=1;fontSize=16;fontColor=#FFFFFF;fillColor=#3399FF;" vertex="1" parent="JxYig3Qd_sJgL82QAQI8-83">
          <mxGeometry x="390" y="200" width="120" height="60" as="geometry" />
        </mxCell>
        <mxCell id="JxYig3Qd_sJgL82QAQI8-80" value="" style="endArrow=classic;html=1;rounded=0;fontSize=16;fontColor=#FFFFFF;strokeColor=#007FFF;strokeWidth=3;entryX=1;entryY=0.5;entryDx=0;entryDy=0;exitX=0;exitY=0.5;exitDx=0;exitDy=0;" edge="1" parent="JxYig3Qd_sJgL82QAQI8-83" source="JxYig3Qd_sJgL82QAQI8-76" target="JxYig3Qd_sJgL82QAQI8-77">
          <mxGeometry width="50" height="50" relative="1" as="geometry">
            <mxPoint x="180" y="490" as="sourcePoint" />
            <mxPoint x="230" y="440" as="targetPoint" />
          </mxGeometry>
        </mxCell>
        <mxCell id="JxYig3Qd_sJgL82QAQI8-81" value="" style="endArrow=classic;html=1;rounded=0;fontSize=16;fontColor=#FFFFFF;strokeColor=#007FFF;strokeWidth=3;entryX=0;entryY=0.5;entryDx=0;entryDy=0;exitX=0.5;exitY=1;exitDx=0;exitDy=0;edgeStyle=orthogonalEdgeStyle;" edge="1" parent="JxYig3Qd_sJgL82QAQI8-83" source="JxYig3Qd_sJgL82QAQI8-77" target="JxYig3Qd_sJgL82QAQI8-78">
          <mxGeometry width="50" height="50" relative="1" as="geometry">
            <mxPoint x="340" y="389.4100000000001" as="sourcePoint" />
            <mxPoint x="120" y="389.4100000000001" as="targetPoint" />
          </mxGeometry>
        </mxCell>
        <mxCell id="JxYig3Qd_sJgL82QAQI8-82" value="" style="rhombus;whiteSpace=wrap;html=1;fontSize=16;fontColor=#FFFFFF;fillColor=#3399FF;rotation=90;" vertex="1" parent="JxYig3Qd_sJgL82QAQI8-83">
          <mxGeometry x="330" y="200" width="20" height="60" as="geometry" />
        </mxCell>
        <mxCell id="JxYig3Qd_sJgL82QAQI8-102" value="" style="group" vertex="1" connectable="0" parent="JxYig3Qd_sJgL82QAQI8-210">
          <mxGeometry x="609" y="346" width="210" height="300" as="geometry" />
        </mxCell>
        <mxCell id="JxYig3Qd_sJgL82QAQI8-84" value="" style="html=1;fontSize=12;fontColor=#007FFF;fillColor=#FFFFFF;align=center;" vertex="1" parent="JxYig3Qd_sJgL82QAQI8-102">
          <mxGeometry width="210" height="300" as="geometry" />
        </mxCell>
        <mxCell id="JxYig3Qd_sJgL82QAQI8-85" value="dcat:Dataset" style="text;html=1;align=center;verticalAlign=middle;resizable=0;points=[];autosize=1;strokeColor=none;fillColor=none;fontSize=16;fontColor=#000000;" vertex="1" parent="JxYig3Qd_sJgL82QAQI8-102">
          <mxGeometry x="45" y="30" width="110" height="20" as="geometry" />
        </mxCell>
        <mxCell id="JxYig3Qd_sJgL82QAQI8-86" value="Data Flow" style="rounded=1;whiteSpace=wrap;html=1;fontSize=16;fontColor=#FFFFFF;fillColor=#3399FF;" vertex="1" parent="JxYig3Qd_sJgL82QAQI8-102">
          <mxGeometry x="45" y="70" width="120" height="60" as="geometry" />
        </mxCell>
        <mxCell id="JxYig3Qd_sJgL82QAQI8-87" value="Data Structure" style="rounded=1;whiteSpace=wrap;html=1;fontSize=16;fontColor=#FFFFFF;fillColor=#3399FF;" vertex="1" parent="JxYig3Qd_sJgL82QAQI8-102">
          <mxGeometry x="45" y="210" width="120" height="60" as="geometry" />
        </mxCell>
        <mxCell id="JxYig3Qd_sJgL82QAQI8-91" value="" style="endArrow=classic;html=1;rounded=0;fontSize=16;fontColor=#FFFFFF;strokeColor=#007FFF;strokeWidth=3;entryX=0.5;entryY=0;entryDx=0;entryDy=0;exitX=0.5;exitY=1;exitDx=0;exitDy=0;" edge="1" parent="JxYig3Qd_sJgL82QAQI8-102" source="JxYig3Qd_sJgL82QAQI8-86" target="JxYig3Qd_sJgL82QAQI8-87">
          <mxGeometry width="50" height="50" relative="1" as="geometry">
            <mxPoint x="970" y="120" as="sourcePoint" />
            <mxPoint x="750" y="120" as="targetPoint" />
          </mxGeometry>
        </mxCell>
        <mxCell id="JxYig3Qd_sJgL82QAQI8-103" value="" style="group" vertex="1" connectable="0" parent="JxYig3Qd_sJgL82QAQI8-210">
          <mxGeometry x="949" y="560" width="190" height="139" as="geometry" />
        </mxCell>
        <mxCell id="JxYig3Qd_sJgL82QAQI8-95" value="" style="html=1;fontSize=12;fontColor=#007FFF;fillColor=#FFFFFF;align=center;" vertex="1" parent="JxYig3Qd_sJgL82QAQI8-103">
          <mxGeometry width="190" height="139" as="geometry" />
        </mxCell>
        <mxCell id="JxYig3Qd_sJgL82QAQI8-96" value="qb:AttributeProperty" style="text;html=1;align=center;verticalAlign=middle;resizable=0;points=[];autosize=1;strokeColor=none;fillColor=none;fontSize=16;fontColor=#000000;" vertex="1" parent="JxYig3Qd_sJgL82QAQI8-103">
          <mxGeometry x="20" y="109" width="160" height="20" as="geometry" />
        </mxCell>
        <mxCell id="JxYig3Qd_sJgL82QAQI8-88" value="Attribute" style="rounded=1;whiteSpace=wrap;html=1;fontSize=16;fontColor=#FFFFFF;fillColor=#3399FF;" vertex="1" parent="JxYig3Qd_sJgL82QAQI8-103">
          <mxGeometry x="40" y="30" width="120" height="60" as="geometry" />
        </mxCell>
        <mxCell id="JxYig3Qd_sJgL82QAQI8-104" value="" style="group" vertex="1" connectable="0" parent="JxYig3Qd_sJgL82QAQI8-210">
          <mxGeometry x="949" y="716" width="190" height="139" as="geometry" />
        </mxCell>
        <mxCell id="JxYig3Qd_sJgL82QAQI8-99" value="" style="html=1;fontSize=12;fontColor=#007FFF;fillColor=#FFFFFF;align=center;" vertex="1" parent="JxYig3Qd_sJgL82QAQI8-104">
          <mxGeometry width="190" height="139" as="geometry" />
        </mxCell>
        <mxCell id="JxYig3Qd_sJgL82QAQI8-100" value="qb:DimensionProperty" style="text;html=1;align=center;verticalAlign=middle;resizable=0;points=[];autosize=1;strokeColor=none;fillColor=none;fontSize=16;fontColor=#000000;" vertex="1" parent="JxYig3Qd_sJgL82QAQI8-104">
          <mxGeometry x="10" y="109" width="170" height="20" as="geometry" />
        </mxCell>
        <mxCell id="JxYig3Qd_sJgL82QAQI8-101" value="Dimension" style="rounded=1;whiteSpace=wrap;html=1;fontSize=16;fontColor=#FFFFFF;fillColor=#3399FF;" vertex="1" parent="JxYig3Qd_sJgL82QAQI8-104">
          <mxGeometry x="40" y="30" width="120" height="60" as="geometry" />
        </mxCell>
        <mxCell id="JxYig3Qd_sJgL82QAQI8-92" value="" style="endArrow=none;html=1;endSize=12;startArrow=diamondThin;startSize=14;startFill=1;align=left;verticalAlign=bottom;rounded=0;fontSize=16;fontColor=#FFFFFF;strokeColor=#007FFF;strokeWidth=3;exitX=1;exitY=0.25;exitDx=0;exitDy=0;entryX=0;entryY=0.5;entryDx=0;entryDy=0;endFill=0;" edge="1" parent="JxYig3Qd_sJgL82QAQI8-210" source="JxYig3Qd_sJgL82QAQI8-87" target="JxYig3Qd_sJgL82QAQI8-88">
          <mxGeometry x="-1" y="3" relative="1" as="geometry">
            <mxPoint x="479" y="516" as="sourcePoint" />
            <mxPoint x="639" y="516" as="targetPoint" />
          </mxGeometry>
        </mxCell>
        <mxCell id="JxYig3Qd_sJgL82QAQI8-93" value="" style="endArrow=none;html=1;endSize=12;startArrow=diamondThin;startSize=14;startFill=1;align=left;verticalAlign=bottom;rounded=0;fontSize=16;fontColor=#FFFFFF;strokeColor=#007FFF;strokeWidth=3;entryX=0;entryY=0.5;entryDx=0;entryDy=0;endFill=0;exitX=1;exitY=0.75;exitDx=0;exitDy=0;" edge="1" parent="JxYig3Qd_sJgL82QAQI8-210" source="JxYig3Qd_sJgL82QAQI8-87" target="JxYig3Qd_sJgL82QAQI8-101">
          <mxGeometry x="-1" y="3" relative="1" as="geometry">
            <mxPoint x="694" y="626" as="sourcePoint" />
            <mxPoint x="794" y="646" as="targetPoint" />
          </mxGeometry>
        </mxCell>
        <mxCell id="JxYig3Qd_sJgL82QAQI8-90" value="" style="endArrow=classic;html=1;rounded=0;fontSize=16;fontColor=#FFFFFF;strokeColor=#007FFF;strokeWidth=3;entryX=1;entryY=0.5;entryDx=0;entryDy=0;exitX=0;exitY=0.5;exitDx=0;exitDy=0;" edge="1" parent="JxYig3Qd_sJgL82QAQI8-210" source="JxYig3Qd_sJgL82QAQI8-77" target="JxYig3Qd_sJgL82QAQI8-86">
          <mxGeometry width="50" height="50" relative="1" as="geometry">
            <mxPoint x="1029" y="445.40999999999997" as="sourcePoint" />
            <mxPoint x="809" y="445.40999999999997" as="targetPoint" />
          </mxGeometry>
        </mxCell>
        <mxCell id="JxYig3Qd_sJgL82QAQI8-105" value="" style="html=1;fontSize=12;fontColor=#007FFF;fillColor=#FFFFFF;align=center;" vertex="1" parent="JxYig3Qd_sJgL82QAQI8-210">
          <mxGeometry x="159" y="536" width="210" height="300" as="geometry" />
        </mxCell>
        <mxCell id="JxYig3Qd_sJgL82QAQI8-106" value="dcat:Catalog" style="text;html=1;align=center;verticalAlign=middle;resizable=0;points=[];autosize=1;strokeColor=none;fillColor=none;fontSize=16;fontColor=#000000;" vertex="1" parent="JxYig3Qd_sJgL82QAQI8-210">
          <mxGeometry x="204" y="566" width="110" height="20" as="geometry" />
        </mxCell>
        <mxCell id="JxYig3Qd_sJgL82QAQI8-107" value="" style="html=1;fontSize=12;fontColor=#007FFF;fillColor=#FFFFFF;align=center;" vertex="1" parent="JxYig3Qd_sJgL82QAQI8-210">
          <mxGeometry x="154" y="60" width="210" height="300" as="geometry" />
        </mxCell>
        <mxCell id="JxYig3Qd_sJgL82QAQI8-108" value="foaf:Agent" style="text;html=1;align=center;verticalAlign=middle;resizable=0;points=[];autosize=1;strokeColor=none;fillColor=none;fontSize=16;fontColor=#000000;" vertex="1" parent="JxYig3Qd_sJgL82QAQI8-210">
          <mxGeometry x="209" y="90" width="90" height="20" as="geometry" />
        </mxCell>
        <mxCell id="JxYig3Qd_sJgL82QAQI8-109" value="Agency" style="rounded=1;whiteSpace=wrap;html=1;fontSize=16;fontColor=#FFFFFF;fillColor=#3399FF;" vertex="1" parent="JxYig3Qd_sJgL82QAQI8-210">
          <mxGeometry x="199" y="126" width="120" height="60" as="geometry" />
        </mxCell>
        <mxCell id="JxYig3Qd_sJgL82QAQI8-110" value="Category" style="rounded=1;whiteSpace=wrap;html=1;fontSize=16;fontColor=#FFFFFF;fillColor=#3399FF;" vertex="1" parent="JxYig3Qd_sJgL82QAQI8-210">
          <mxGeometry x="204" y="606" width="120" height="60" as="geometry" />
        </mxCell>
        <mxCell id="JxYig3Qd_sJgL82QAQI8-111" value="Category&lt;br&gt;Scheme" style="rounded=1;whiteSpace=wrap;html=1;fontSize=16;fontColor=#FFFFFF;fillColor=#3399FF;" vertex="1" parent="JxYig3Qd_sJgL82QAQI8-210">
          <mxGeometry x="204" y="736" width="120" height="60" as="geometry" />
        </mxCell>
        <mxCell id="JxYig3Qd_sJgL82QAQI8-112" value="" style="rhombus;whiteSpace=wrap;html=1;fontSize=16;fontColor=#FFFFFF;fillColor=#3399FF;rotation=0;" vertex="1" parent="JxYig3Qd_sJgL82QAQI8-210">
          <mxGeometry x="254" y="671" width="20" height="60" as="geometry" />
        </mxCell>
        <mxCell id="JxYig3Qd_sJgL82QAQI8-114" value="Categorisation" style="rounded=1;whiteSpace=wrap;html=1;fontSize=16;fontColor=#FFFFFF;fillColor=#3399FF;" vertex="1" parent="JxYig3Qd_sJgL82QAQI8-210">
          <mxGeometry x="409" y="536" width="150" height="60" as="geometry" />
        </mxCell>
        <mxCell id="JxYig3Qd_sJgL82QAQI8-115" value="" style="endArrow=classic;html=1;rounded=0;fontSize=16;fontColor=#FFFFFF;strokeColor=#33FF33;strokeWidth=3;entryX=1;entryY=0.5;entryDx=0;entryDy=0;exitX=0;exitY=0.5;exitDx=0;exitDy=0;edgeStyle=orthogonalEdgeStyle;" edge="1" parent="JxYig3Qd_sJgL82QAQI8-210" source="JxYig3Qd_sJgL82QAQI8-114" target="JxYig3Qd_sJgL82QAQI8-110">
          <mxGeometry width="50" height="50" relative="1" as="geometry">
            <mxPoint x="664" y="675.9999999999995" as="sourcePoint" />
            <mxPoint x="459" y="795.9999999999995" as="targetPoint" />
            <Array as="points">
              <mxPoint x="349" y="566" />
              <mxPoint x="349" y="636" />
            </Array>
          </mxGeometry>
        </mxCell>
        <mxCell id="JxYig3Qd_sJgL82QAQI8-119" value="" style="group" vertex="1" connectable="0" parent="JxYig3Qd_sJgL82QAQI8-210">
          <mxGeometry x="379" y="366" width="200" height="120" as="geometry" />
        </mxCell>
        <mxCell id="JxYig3Qd_sJgL82QAQI8-117" value="" style="html=1;fontSize=12;fontColor=#007FFF;fillColor=#FFFFFF;align=center;" vertex="1" parent="JxYig3Qd_sJgL82QAQI8-119">
          <mxGeometry width="200" height="120" as="geometry" />
        </mxCell>
        <mxCell id="JxYig3Qd_sJgL82QAQI8-118" value="skos:ConceptScheme" style="text;html=1;align=center;verticalAlign=middle;resizable=0;points=[];autosize=1;strokeColor=none;fillColor=none;fontSize=16;fontColor=#000000;" vertex="1" parent="JxYig3Qd_sJgL82QAQI8-119">
          <mxGeometry x="14.285714285714285" y="89.99736842105263" width="170" height="20" as="geometry" />
        </mxCell>
        <mxCell id="JxYig3Qd_sJgL82QAQI8-120" value="Category&lt;br&gt;Scheme" style="rounded=1;whiteSpace=wrap;html=1;fontSize=16;fontColor=#FFFFFF;fillColor=#3399FF;" vertex="1" parent="JxYig3Qd_sJgL82QAQI8-119">
          <mxGeometry x="41.9" y="28.049999999999997" width="114.29" height="45.95" as="geometry" />
        </mxCell>
        <mxCell id="JxYig3Qd_sJgL82QAQI8-121" value="" style="group" vertex="1" connectable="0" parent="JxYig3Qd_sJgL82QAQI8-210">
          <mxGeometry x="379" y="226" width="200" height="160" as="geometry" />
        </mxCell>
        <mxCell id="JxYig3Qd_sJgL82QAQI8-122" value="" style="html=1;fontSize=12;fontColor=#007FFF;fillColor=#FFFFFF;align=center;" vertex="1" parent="JxYig3Qd_sJgL82QAQI8-121">
          <mxGeometry width="200" height="120" as="geometry" />
        </mxCell>
        <mxCell id="JxYig3Qd_sJgL82QAQI8-123" value="skos:Concept" style="text;html=1;align=center;verticalAlign=middle;resizable=0;points=[];autosize=1;strokeColor=none;fillColor=none;fontSize=16;fontColor=#000000;" vertex="1" parent="JxYig3Qd_sJgL82QAQI8-121">
          <mxGeometry x="44.285714285714285" y="18.947368421052634" width="110" height="20" as="geometry" />
        </mxCell>
        <mxCell id="JxYig3Qd_sJgL82QAQI8-124" value="Category" style="rounded=1;whiteSpace=wrap;html=1;fontSize=16;fontColor=#FFFFFF;fillColor=#3399FF;" vertex="1" parent="JxYig3Qd_sJgL82QAQI8-121">
          <mxGeometry x="41.904761904761905" y="54.05263157894737" width="114.28571428571428" height="37.89473684210527" as="geometry" />
        </mxCell>
        <mxCell id="JxYig3Qd_sJgL82QAQI8-125" value="" style="rhombus;whiteSpace=wrap;html=1;fontSize=16;fontColor=#FFFFFF;fillColor=#3399FF;rotation=0;" vertex="1" parent="JxYig3Qd_sJgL82QAQI8-121">
          <mxGeometry x="90" y="100" width="20" height="60" as="geometry" />
        </mxCell>
        <mxCell id="JxYig3Qd_sJgL82QAQI8-127" value="Categorisation" style="rounded=1;whiteSpace=wrap;html=1;fontSize=16;fontColor=#FFFFFF;fillColor=#3399FF;" vertex="1" parent="JxYig3Qd_sJgL82QAQI8-210">
          <mxGeometry x="189" y="406" width="150" height="60" as="geometry" />
        </mxCell>
        <mxCell id="JxYig3Qd_sJgL82QAQI8-129" value="" style="edgeStyle=orthogonalEdgeStyle;rounded=0;orthogonalLoop=1;jettySize=auto;html=1;fontSize=16;fontColor=#FFFFFF;endArrow=classic;endFill=1;strokeColor=#33FF33;strokeWidth=3;entryX=0;entryY=0.5;entryDx=0;entryDy=0;exitX=0;exitY=0.5;exitDx=0;exitDy=0;" edge="1" parent="JxYig3Qd_sJgL82QAQI8-210" source="JxYig3Qd_sJgL82QAQI8-127" target="JxYig3Qd_sJgL82QAQI8-110">
          <mxGeometry relative="1" as="geometry">
            <mxPoint x="488.85712781994425" y="485.99736842105267" as="sourcePoint" />
            <mxPoint x="492.285759397309" y="546" as="targetPoint" />
            <Array as="points">
              <mxPoint x="139" y="436" />
              <mxPoint x="139" y="636" />
            </Array>
          </mxGeometry>
        </mxCell>
        <mxCell id="JxYig3Qd_sJgL82QAQI8-130" value="" style="endArrow=classic;html=1;rounded=0;fontSize=16;fontColor=#FFFFFF;strokeColor=#33FF33;strokeWidth=3;entryX=0;entryY=0.5;entryDx=0;entryDy=0;exitX=1;exitY=0.5;exitDx=0;exitDy=0;edgeStyle=orthogonalEdgeStyle;" edge="1" parent="JxYig3Qd_sJgL82QAQI8-210" source="JxYig3Qd_sJgL82QAQI8-127" target="JxYig3Qd_sJgL82QAQI8-120">
          <mxGeometry width="50" height="50" relative="1" as="geometry">
            <mxPoint x="569" y="576" as="sourcePoint" />
            <mxPoint x="664" y="455.99999999999955" as="targetPoint" />
            <Array as="points">
              <mxPoint x="379" y="436" />
              <mxPoint x="379" y="417" />
            </Array>
          </mxGeometry>
        </mxCell>
        <mxCell id="JxYig3Qd_sJgL82QAQI8-131" value="" style="edgeStyle=orthogonalEdgeStyle;rounded=0;orthogonalLoop=1;jettySize=auto;html=1;fontSize=16;fontColor=#FFFFFF;endArrow=classic;endFill=1;strokeColor=#33FF33;strokeWidth=3;entryX=0;entryY=0.5;entryDx=0;entryDy=0;exitX=0;exitY=0.5;exitDx=0;exitDy=0;" edge="1" parent="JxYig3Qd_sJgL82QAQI8-210" source="JxYig3Qd_sJgL82QAQI8-105" target="JxYig3Qd_sJgL82QAQI8-109">
          <mxGeometry relative="1" as="geometry">
            <mxPoint x="518.94" y="635.9999999999995" as="sourcePoint" />
            <mxPoint x="533.94" y="836" as="targetPoint" />
            <Array as="points">
              <mxPoint x="89" y="686" />
              <mxPoint x="89" y="156" />
            </Array>
          </mxGeometry>
        </mxCell>
        <mxCell id="JxYig3Qd_sJgL82QAQI8-209" value="" style="endArrow=classic;html=1;rounded=0;fontSize=16;fontColor=#FFFFFF;strokeColor=#33FF33;strokeWidth=3;entryX=0;entryY=0.5;entryDx=0;entryDy=0;exitX=1;exitY=0.5;exitDx=0;exitDy=0;edgeStyle=orthogonalEdgeStyle;" edge="1" parent="JxYig3Qd_sJgL82QAQI8-210" source="JxYig3Qd_sJgL82QAQI8-114" target="JxYig3Qd_sJgL82QAQI8-86">
          <mxGeometry width="50" height="50" relative="1" as="geometry">
            <mxPoint x="594" y="676" as="sourcePoint" />
            <mxPoint x="509" y="746" as="targetPoint" />
            <Array as="points">
              <mxPoint x="589" y="566" />
              <mxPoint x="589" y="446" />
            </Array>
          </mxGeometry>
        </mxCell>
      </root>
    </mxGraphModel>
  </diagram>
</mxfile>
